PathFileType	4	(X/Y/Z)	C:\Users\°ÂÌØÂü\Desktop\20210112\bx_y_0_901-Unnamed.trc
DataRate	CameraRate	NumFrames	NumMarkers	Units	OrigDataRate	OrigDataStartFrame	OrigNumFrames
50.00	50.00	       7	0	mm	50.00	400	       457
Frame#	Time	
		

400	7.980	-576.91290	-9.96343	1050.12427	-707.04755	297.17648	1529.42847	-679.44873	141.05478	571.84686	-775.27942	93.93253	1051.07715	-681.43164	79.43082	576.78778	-622.38000	277.17844	875.26465	-572.35809	-2.54773	802.52417	-710.68213	150.79027	215.61720	-674.49384	268.64975	744.61566	-709.58545	247.33273	640.25604	-679.11975	-50.39605	717.19659	-718.74170	243.12462	576.75702	-658.82349	18.11223	519.65845	-761.53760	252.02840	505.05591	-666.40637	203.18771	531.25873	-690.30243	-66.33823	1545.78442	-664.03302	-68.13807	162.34727	-566.30774	211.30745	811.51892	-770.21637	221.56195	206.14211	-882.69977	296.09418	144.47816	-676.07709	54.78149	157.39891	-603.93103	19.95640	166.33138	-675.12091	173.08876	155.62859	-594.04834	221.86813	172.78505	-666.84735	298.67288	160.57143	-629.74176	306.81979	162.94211	-560.20111	260.03439	166.20381	-528.19830	304.30228	146.37737	-742.97327	114.85789	1845.75940	-517.28613	-72.40974	142.99864	-795.53992	171.65059	184.49757	-766.83173	-6.06460	208.35646	-794.83832	54.69425	175.14462	-567.25476	217.75963	1068.28699	-755.79120	-35.53992	490.04236	-559.61945	-38.05557	163.95618	-875.87347	-78.77656	141.15236	-637.42621	-74.62589	858.88055	-716.67877	77.78955	215.91428	-692.08185	-29.62156	614.05548	-706.63593	-26.26942	567.75299	-622.35535	-78.40044	158.35385	
401	8.000	-576.86176	-9.84315	1050.22095	-706.94159	297.20584	1529.62390	-679.73297	141.19641	571.88556	-775.23029	94.03449	1050.95068	-681.27710	79.39544	576.94244	-622.41547	277.25647	875.13049	-572.23145	-2.63404	802.62415	-710.43811	151.08876	215.39297	-674.44598	268.42999	744.36761	-709.47205	247.27599	640.17303	-679.17633	-50.35407	717.41602	-718.74170	243.12462	576.75702	-658.86340	18.22416	519.56268	-761.48468	252.04381	505.02060	-666.50427	203.23782	531.24805	-690.20544	-66.52439	1545.94263	-664.12738	-68.13777	162.36879	-566.24384	211.21585	811.63068	-770.27502	221.56593	206.12863	-882.62518	296.03879	144.44261	-675.79083	54.86216	157.79471	-604.04437	20.01714	166.50929	-675.15607	173.19321	155.63841	-594.03033	221.92841	172.85423	-666.81110	298.70905	160.64574	-629.75873	306.80569	162.84055	-560.17688	259.90076	165.91954	-528.19830	304.30228	146.37737	-742.55377	114.92516	1845.87244	-517.27795	-72.38451	142.88759	-795.67969	171.46819	184.67433	-766.84027	-6.04433	208.37120	-794.79034	54.93882	174.82892	-567.37457	217.97751	1067.99512	-755.79120	-35.53992	490.04236	-559.67999	-38.23283	163.90131	-876.00653	-78.66238	141.45602	-637.42621	-74.62589	858.88055	-716.36139	77.80432	216.06389	-692.08252	-29.66726	614.00098	-706.86548	-26.15412	567.48126	-622.53992	-78.40527	158.41086	
402	8.020	-576.93701	-9.76534	1050.12659	-706.79010	297.23831	1529.50720	-679.44873	141.05478	571.84686	-775.26654	94.21951	1051.21118	-681.43164	79.43082	576.78778	-622.41547	277.25647	875.13049	-572.31122	-2.65629	802.22003	-710.67505	150.94376	215.57497	-674.13507	269.10764	744.87677	-709.39813	247.18307	640.18988	-679.12201	-50.21471	717.34357	-718.60260	243.04543	576.66449	-658.98651	18.47202	519.22552	-761.45099	251.96623	504.97217	-666.19067	203.30852	531.34937	-689.96783	-66.51426	1545.80212	-664.10016	-68.12603	162.46686	-566.18622	211.23921	811.58191	-770.25031	221.62628	206.09920	-882.65991	296.06039	144.56694	-675.90619	54.83577	157.65205	-604.09766	19.93832	166.46185	-675.12091	173.08876	155.62859	-594.07037	221.88754	172.97188	-666.95551	298.65161	160.58632	-629.87970	306.83041	162.80740	-560.16797	259.96521	166.08176	-528.19830	304.30228	146.37737	-742.27716	114.90004	1845.81958	-517.24939	-72.54607	142.82817	-795.54779	171.55020	184.61195	-767.38959	-6.09482	208.35716	-794.83356	54.76612	174.83498	-567.26971	217.82620	1068.18945	-755.81720	-35.63279	489.98044	-559.66321	-38.03433	163.87935	-876.00970	-78.74700	141.30463	-637.75989	-74.25298	858.62189	-716.17841	77.72048	215.79559	-692.06812	-29.76588	613.93671	-706.68732	-26.23853	567.66461	-622.49701	-78.36362	158.37822	
403	8.040	-576.93701	-9.76534	1050.12659	-706.57538	297.42517	1529.53833	-679.73297	141.19641	571.88556	-775.10529	94.09625	1051.33850	-681.43164	79.43082	576.78778	-622.23779	277.20001	875.23761	-572.14758	-2.64741	802.13507	-710.58331	150.92819	215.51688	-674.13507	269.10764	744.87677	-709.34119	247.20203	640.08801	-679.12201	-50.21471	717.34357	-718.49597	243.02029	576.54950	-659.07886	18.37215	519.39325	-761.28375	252.12819	504.97852	-666.32385	203.35548	531.25305	-689.84515	-66.27777	1545.82764	-664.06458	-68.07967	162.57883	-566.18622	211.23921	811.58191	-770.24158	221.62787	206.20715	-882.67389	296.10397	144.50414	-676.00525	54.93711	157.41753	-603.99792	20.05885	166.30214	-675.15607	173.19321	155.63841	-594.08832	221.82727	172.90269	-666.81110	298.70905	160.64574	-629.83057	306.87173	162.85802	-560.12274	259.99438	166.17841	-528.27954	304.45236	146.40370	-741.85553	114.86652	1845.79236	-517.20398	-72.40503	142.87691	-795.49097	171.67406	184.58537	-767.27386	-6.03571	208.36685	-794.74982	54.86514	174.84637	-566.91028	217.73087	1068.29456	-755.64081	-35.55669	489.96075	-559.53967	-38.06571	163.83708	-875.95447	-78.70157	141.15225	-637.39490	-74.51759	859.07019	-716.29913	77.72152	216.05939	-692.00586	-29.77987	614.03796	-706.70313	-26.16286	567.77014	-622.43549	-78.34855	158.31671	
404	8.060	-576.89832	-9.76052	1049.98132	-706.21930	297.61581	1529.58472	-679.44873	141.05478	571.84686	-774.97021	94.11552	1051.58728	-681.43164	79.43082	576.78778	-622.23779	277.20001	875.23761	-572.05280	-2.65104	802.11597	-710.40460	151.24884	215.75780	-673.90320	268.73749	744.55219	-709.33160	247.25925	640.00238	-678.84058	-50.29067	717.39679	-718.53943	243.05663	576.44116	-659.01569	18.22379	519.63177	-761.19550	252.14543	505.20078	-666.40717	203.22723	531.20856	-689.56140	-66.14074	1545.75061	-664.03540	-67.95746	162.54688	-566.02777	211.24173	811.70239	-770.21930	221.48106	206.06647	-882.71997	296.25824	144.64258	-676.00525	54.93711	157.41753	-603.89996	20.01383	166.26889	-675.15607	173.19321	155.63841	-594.10016	221.95938	172.78741	-666.84735	298.67288	160.57143	-629.75873	306.80569	162.84055	-560.07422	259.90448	166.09711	-528.19830	304.30228	146.37737	-741.53033	114.88872	1845.77100	-517.27795	-72.38451	142.88759	-795.58533	171.59015	184.48349	-767.05933	-6.02985	208.35838	-794.70526	54.87359	174.89900	-566.82715	218.09843	1067.99915	-755.69708	-35.51891	489.87863	-559.60822	-38.10001	163.92635	-875.61420	-78.86797	141.32495	-637.39490	-74.51759	859.07019	-716.60101	77.68607	215.90863	-692.08185	-29.62156	614.05548	-706.81543	-26.11852	567.54718	-622.43549	-78.34855	158.31671	
405	8.080	-576.91907	-9.71721	1050.04639	-705.94763	297.65979	1529.55969	-679.44873	141.05478	571.84686	-774.80334	94.31677	1051.44299	-681.43713	79.54195	576.72015	-622.23779	277.20001	875.23761	-572.06177	-2.80102	802.01227	-710.43811	151.08876	215.39297	-673.50641	269.03110	744.56409	-709.36523	247.46848	640.11041	-678.91565	-50.26207	717.31250	-718.37689	243.10257	576.64343	-659.11261	18.48055	519.55316	-761.19550	252.14543	505.20078	-666.19067	203.30852	531.34937	-689.22333	-65.99220	1545.94226	-664.14673	-68.03590	162.37587	-566.15704	211.28651	811.50720	-770.25031	221.49329	206.05602	-882.62158	296.14899	144.58987	-676.00525	54.93711	157.41753	-603.81226	20.04261	166.37581	-675.31256	173.02028	155.58986	-594.08832	221.82727	172.90269	-666.84735	298.67288	160.57143	-629.83179	306.81259	162.88161	-560.17676	260.05087	166.02528	-528.12360	304.36343	146.55630	-741.27655	114.96926	1845.81287	-517.33826	-72.15140	142.56558	-795.41925	171.58577	184.50453	-767.15790	-6.04307	208.42061	-794.72028	54.74450	175.03322	-566.33630	218.01149	1068.17383	-755.62860	-35.29525	489.96356	-559.62225	-38.15086	163.89159	-875.80096	-78.78884	141.48030	-637.60706	-74.33980	858.83728	-716.27240	77.76341	215.93361	-692.08185	-29.62156	614.05548	-706.56348	-26.08709	567.68274	-622.39087	-78.50691	158.33720	
406	8.100	-576.89832	-9.76052	1049.98132	-705.73688	297.83719	1529.65430	-679.44873	141.05478	571.84686	-774.79504	94.45421	1051.55811	-681.43164	79.43082	576.78778	-622.07294	277.29935	875.19830	-572.14758	-2.64741	802.13507	-710.57709	150.85948	215.41768	-673.55432	269.25079	744.81213	-709.35071	247.42015	640.17303	-678.97705	-50.24822	717.23218	-718.45892	243.09264	576.46948	-659.11261	18.48055	519.55316	-761.21344	252.28726	505.17331	-666.19067	203.30852	531.34937	-688.92242	-65.96498	1546.04382	-664.15173	-68.13345	162.40758	-566.09015	211.36168	811.60138	-770.19916	221.62477	206.10693	-882.79480	296.08548	144.51094	-675.91711	54.91553	157.54874	-603.89160	20.03380	166.29486	-675.09033	172.80179	156.02643	-594.15417	221.85127	172.83569	-666.95966	298.55673	160.37502	-629.83179	306.81259	162.88161	-560.14148	260.17532	166.32745	-528.19830	304.30228	146.37737	-740.86938	114.92510	1845.92871	-517.35321	-72.28294	142.84299	-795.37091	171.71162	184.45345	-766.57141	-5.99430	208.46237	-794.75946	54.73793	174.96715	-566.28674	218.04692	1068.12097	-755.76428	-35.38802	489.96051	-559.56451	-38.12126	164.00316	-875.84631	-78.84808	141.09875	-637.39490	-74.51759	859.07019	-716.49530	77.73892	215.59142	-692.08185	-29.62156	614.05548	-706.70313	-26.16286	567.77014	-622.27765	-78.58763	158.49086	
